# xmcd
# 
# Track frame offsets:
#     150
#     22232
#     45380
#     68865
#     86447
#     102450
#     119190
#     138255
#     154522
# 
# Disc length: 2251
# 
# Revision: 0
# Processed by: cddbd v1.5.2PL0 Copyright (c) Steve Scherf et al.
# Submitted via: BonkEnc v1.0
# 
DISCID=7808c909
DTITLE=Paul Butterfield - Better Days
DYEAR=1973
DGENRE=Blues
TTITLE0=New walkin' blues
TTITLE1=Please send me someone to love
TTITLE2=Broke my baby's heart
TTITLE3=Done a lot of wrong things
TTITLE4=Baby please don't go
TTITLE5=Buried alive in the blues
TTITLE6=Rule the road
TTITLE7=Nobody fault but mine
TTITLE8=Highway
EXTD=
EXTT0=
EXTT1=
EXTT2=
EXTT3=
EXTT4=
EXTT5=
EXTT6=
EXTT7=
EXTT8=
PLAYORDER=
